<?xml version="1.0" encoding="UTF-8"?>
<svg width="20px" height="22px" viewBox="0 0 20 22" version="1.1" xmlns="http://www.w3.org/2000/svg" xmlns:xlink="http://www.w3.org/1999/xlink">
    <!-- Generator: Sketch 47.1 (45422) - http://www.bohemiancoding.com/sketch -->
    <title>home</title>
    <desc>Created with Sketch.</desc>
    <defs></defs>
    <g id="Symbols" stroke="none" stroke-width="1" fill="none" fill-rule="evenodd">
        <g id="Header" transform="translate(-957.000000, -19.000000)" fill="#CCCCCC">
            <g id="home">
                <path d="M974.920998,39.3403043 L970.685774,39.3403043 L970.685774,34.0846013 C970.685774,33.0168637 969.675973,32.1482896 968.434511,32.1482896 L965.369468,32.1482896 C964.128007,32.1482896 963.112266,33.0168637 963.112266,34.0846013 L963.112266,39.3403043 L959.079002,39.3403043 C958.918622,39.3403043 958.782002,39.213061 958.782002,39.0636884 L958.782002,28.408442 L966.96139,20.9785376 L975.122958,28.1207614 L975.217998,39.0636884 C975.217998,39.213061 975.081378,39.3403043 974.920998,39.3403043 Z M976.89902,27.7500961 C976.89902,27.7500961 976.89902,27.7445637 976.89902,27.7390314 C976.89902,27.7334991 976.89902,27.7279668 976.89902,27.7169021 C976.89308,27.6173204 976.86932,27.5177387 976.82774,27.4236892 L976.8218,27.4181569 C976.77428,27.3185752 976.70894,27.2300581 976.62578,27.1581379 C976.62578,27.1581379 976.61984,27.1581379 976.61984,27.1526056 L967.561331,19.2247925 C967.21681,18.920515 966.67033,18.9260473 966.331749,19.2358571 L957.27324,27.4624155 C957.2673,27.4679478 957.2673,27.4679478 957.2673,27.4679478 C957.18414,27.5454002 957.1188,27.6339174 957.07128,27.7334991 C957.07128,27.7390314 957.07128,27.7390314 957.07128,27.7390314 C957.0297,27.8330808 957.00594,27.9326626 957.00594,28.0377766 C957.00594,28.043309 957,28.0488413 957,28.0543736 C957,28.0543736 957,28.0543736 957,28.0599059 L957,39.0636884 C957,40.1314259 957.932581,41 959.079002,41 L964.003267,41 C964.496287,41 964.894268,40.6293346 964.894268,40.1701522 C964.894268,40.1424906 964.888328,40.1092966 964.888328,40.081635 C964.888328,40.0484411 964.894268,40.0207795 964.894268,39.9875856 L964.894268,34.0846013 C964.894268,33.9739549 965.078408,33.8079853 965.369468,33.8079853 L968.434511,33.8079853 C968.725572,33.8079853 968.903772,33.9739549 968.903772,34.0846013 L968.903772,39.9875856 C968.903772,40.0207795 968.915652,40.0484411 968.915652,40.081635 C968.915652,40.1092966 968.903772,40.1424906 968.903772,40.1701522 C968.903772,40.6293346 969.307692,41 969.794773,41 L974.920998,41 C976.067419,41 977,40.1314259 977,39.058156 L976.89902,27.7500961 L976.89902,27.7500961 Z"></path>
            </g>
        </g>
    </g>
</svg>