<?xml version="1.0" encoding="UTF-8"?>
<svg width="22px" height="22px" viewBox="0 0 22 22" version="1.1" xmlns="http://www.w3.org/2000/svg" xmlns:xlink="http://www.w3.org/1999/xlink">
    <!-- Generator: Sketch 47.1 (45422) - http://www.bohemiancoding.com/sketch -->
    <title>search</title>
    <desc>Created with Sketch.</desc>
    <defs></defs>
    <g id="Symbols" stroke="none" stroke-width="1" fill="none" fill-rule="evenodd">
        <g id="Header" transform="translate(-30.000000, -19.000000)" fill="#CCCCCC">
            <g id="search">
                <path d="M43.127981,34.9264161 C41.1901314,34.9264161 39.4323294,34.1519322 38.1474445,32.8941239 C38.1456908,32.8941239 38.1451062,32.8883007 38.1433525,32.8883007 C38.1404297,32.8883007 38.1363377,32.8824775 38.1334148,32.8824775 C36.823978,31.5955532 36.009672,29.8078348 36.009672,27.8395977 C36.009672,23.9264161 39.2031779,20.7469561 43.127981,20.7469561 C47.052784,20.7469561 50.24629,23.9264161 50.24629,27.8395977 C50.24629,31.7469561 47.052784,34.9264161 43.127981,34.9264161 Z M43.127981,19 C38.2362991,19 34.2559619,22.9655903 34.2559619,27.8395977 C34.2559619,29.9825304 35.0281789,31.9507676 36.3078027,33.4822657 L30.2569185,39.5092642 C29.9143605,39.8528322 29.9143605,40.4002118 30.2569185,40.7437798 C30.4281975,40.9126522 30.6526724,41 30.8771473,41 C31.1016222,41 31.3255125,40.9126522 31.4967915,40.7437798 L37.5581979,34.705135 C39.0821719,35.9338274 41.019437,36.6733722 43.127981,36.6733722 C48.0202474,36.6733722 52,32.7077819 52,27.8395977 C52,22.9655903 48.0202474,19 43.127981,19 L43.127981,19 Z" transform="translate(41.000000, 30.000000) scale(-1, 1) translate(-41.000000, -30.000000) "></path>
            </g>
        </g>
    </g>
</svg>