<?xml version="1.0" encoding="UTF-8"?>
<svg width="22px" height="22px" viewBox="0 0 22 22" version="1.1" xmlns="http://www.w3.org/2000/svg" xmlns:xlink="http://www.w3.org/1999/xlink">
    <!-- Generator: Sketch 47.1 (45422) - http://www.bohemiancoding.com/sketch -->
    <title>Settings icon</title>
    <desc>Created with Sketch.</desc>
    <defs></defs>
    <g id="Symbols" stroke="none" stroke-width="1" fill="none" fill-rule="evenodd">
        <g id="Header" transform="translate(-1078.000000, -19.000000)" stroke-width="1.5" stroke="#CCCCCC">
            <g id="Settings-icon">
                <path d="M1092.33333,30 C1092.33333,29.0798565 1092.00782,28.2942741 1091.35677,27.6432292 C1090.70573,26.9921842 1089.92014,26.6666667 1089,26.6666667 C1088.07986,26.6666667 1087.29427,26.9921842 1086.64323,27.6432292 C1085.99218,28.2942741 1085.66667,29.0798565 1085.66667,30 C1085.66667,30.9201435 1085.99218,31.7057259 1086.64323,32.3567708 C1087.29427,33.0078158 1088.07986,33.3333333 1089,33.3333333 C1089.92014,33.3333333 1090.70573,33.0078158 1091.35677,32.3567708 C1092.00782,31.7057259 1092.33333,30.9201435 1092.33333,30 Z M1099,28.5807292 L1099,31.4713542 C1099,31.5755214 1098.96528,31.6753467 1098.89583,31.7708333 C1098.82639,31.8663199 1098.73958,31.922743 1098.63542,31.9401042 L1096.22656,32.3046875 C1096.06163,32.7734398 1095.89236,33.1684012 1095.71875,33.4895833 C1096.02257,33.9236133 1096.48698,34.5225656 1097.11198,35.2864583 C1097.19879,35.3906255 1097.24219,35.4991314 1097.24219,35.6119792 C1097.24219,35.724827 1097.20313,35.8246523 1097.125,35.9114583 C1096.89062,36.2326405 1096.46094,36.7013858 1095.83594,37.3177083 C1095.21093,37.9340309 1094.80295,38.2421875 1094.61198,38.2421875 C1094.50781,38.2421875 1094.39497,38.2031254 1094.27344,38.125 L1092.47656,36.71875 C1092.09462,36.9184038 1091.69965,37.0833327 1091.29167,37.2135417 C1091.15278,38.3941031 1091.02691,39.2013867 1090.91406,39.6354167 C1090.8533,39.8784734 1090.69705,40 1090.44531,40 L1087.55469,40 C1087.43316,40 1087.32682,39.963108 1087.23568,39.8893229 C1087.14453,39.8155378 1087.09462,39.7222228 1087.08594,39.609375 L1086.72135,37.2135417 C1086.296,37.0746521 1085.90538,36.9140634 1085.54948,36.7317708 L1083.71354,38.125 C1083.62674,38.2031254 1083.51823,38.2421875 1083.38802,38.2421875 C1083.26649,38.2421875 1083.15799,38.1944449 1083.0625,38.0989583 C1081.96874,37.1093701 1081.25261,36.3802107 1080.91406,35.9114583 C1080.8533,35.8246523 1080.82292,35.724827 1080.82292,35.6119792 C1080.82292,35.507812 1080.85764,35.4079866 1080.92708,35.3125 C1081.05729,35.1302074 1081.27864,34.8415818 1081.59115,34.4466146 C1081.90365,34.0516473 1082.13802,33.7456608 1082.29427,33.5286458 C1082.05989,33.0946159 1081.88195,32.6649327 1081.76042,32.2395833 L1079.3776,31.8880208 C1079.26476,31.8706596 1079.17361,31.8164067 1079.10417,31.7252604 C1079.03472,31.6341141 1079,31.5321186 1079,31.4192708 L1079,28.5286458 C1079,28.4244786 1079.03472,28.3246533 1079.10417,28.2291667 C1079.17361,28.1336801 1079.25608,28.077257 1079.35156,28.0598958 L1081.77344,27.6953125 C1081.89497,27.2960049 1082.06424,26.8967034 1082.28125,26.4973958 C1081.93403,26.0026017 1081.46962,25.4036493 1080.88802,24.7005208 C1080.80121,24.5963536 1080.75781,24.492188 1080.75781,24.3880208 C1080.75781,24.3012148 1080.79687,24.2013895 1080.875,24.0885417 C1081.1007,23.7760401 1081.52821,23.3094649 1082.15755,22.6888021 C1082.7869,22.0681393 1083.19705,21.7578125 1083.38802,21.7578125 C1083.50087,21.7578125 1083.61371,21.8012148 1083.72656,21.8880208 L1085.52344,23.28125 C1085.90538,23.0815962 1086.30035,22.9166673 1086.70833,22.7864583 C1086.84722,21.6058969 1086.97309,20.7986133 1087.08594,20.3645833 C1087.1467,20.1215266 1087.30295,20 1087.55469,20 L1090.44531,20 C1090.56684,20 1090.67318,20.036892 1090.76432,20.1106771 C1090.85547,20.1844622 1090.90538,20.2777772 1090.91406,20.390625 L1091.27865,22.7864583 C1091.704,22.9253479 1092.09462,23.0859366 1092.45052,23.2682292 L1094.29948,21.875 C1094.3776,21.7968746 1094.48177,21.7578125 1094.61198,21.7578125 C1094.72483,21.7578125 1094.83333,21.8012148 1094.9375,21.8880208 C1096.0573,22.9210121 1096.77344,23.658852 1097.08594,24.1015625 C1097.1467,24.1710073 1097.17708,24.2664924 1097.17708,24.3880208 C1097.17708,24.492188 1097.14236,24.5920134 1097.07292,24.6875 C1096.94271,24.8697926 1096.72136,25.1584182 1096.40885,25.5533854 C1096.09635,25.9483527 1095.86198,26.2543392 1095.70573,26.4713542 C1095.93142,26.9053841 1096.10937,27.3307271 1096.23958,27.7473958 L1098.6224,28.1119792 C1098.73524,28.1293404 1098.82639,28.1835933 1098.89583,28.2747396 C1098.96528,28.3658859 1099,28.4678814 1099,28.5807292 Z"></path>
            </g>
        </g>
    </g>
</svg>