<?xml version="1.0" encoding="UTF-8"?>
<svg width="20px" height="22px" viewBox="0 0 20 22" version="1.1" xmlns="http://www.w3.org/2000/svg" xmlns:xlink="http://www.w3.org/1999/xlink">
    <!-- Generator: Sketch 47.1 (45422) - http://www.bohemiancoding.com/sketch -->
    <title>user</title>
    <desc>Created with Sketch.</desc>
    <defs></defs>
    <g id="Symbols" stroke="none" stroke-width="1" fill="none" fill-rule="evenodd">
        <g id="Header" transform="translate(-1018.000000, -19.000000)" fill="#CCCCCC">
            <g id="user">
                <path d="M1028,20.7111745 C1029.90715,20.7111745 1031.45896,22.2341198 1031.45896,24.0993 C1031.45896,25.9701841 1029.90715,27.4874255 1028,27.4874255 C1026.09285,27.4874255 1024.54162,25.9701841 1024.54162,24.0993 C1024.54162,22.2341198 1026.09285,20.7111745 1028,20.7111745 Z M1028,29.1985999 C1030.87062,29.1985999 1033.2065,26.91133 1033.2065,24.0993 C1033.2065,21.2872699 1030.87062,19 1028,19 C1025.12938,19 1022.79408,21.2872699 1022.79408,24.0993 C1022.79408,26.91133 1025.12938,29.1985999 1028,29.1985999 L1028,29.1985999 Z M1036.25246,39.2888255 L1019.74754,39.2888255 L1019.74754,35.3189007 C1019.74754,34.3150117 1020.14889,33.3339383 1020.82111,32.6893959 C1021.16479,32.3585688 1021.731,31.9592948 1022.53894,31.9821104 C1022.98456,31.9935183 1024.36512,31.9764065 1026.04392,31.9707026 C1028.55222,31.9592948 1031.71585,31.942183 1033.35271,31.942183 C1035.34491,31.942183 1036.25246,33.5335753 1036.25246,35.0108893 L1036.25246,39.2888255 Z M1033.35271,30.2310086 C1031.7141,30.2310086 1028.54698,30.2481203 1026.03577,30.2595281 C1024.3692,30.265232 1022.99272,30.270936 1022.56282,30.270936 C1022.56108,30.270936 1022.55875,30.270936 1022.55642,30.270936 C1021.47411,30.2538242 1020.42092,30.6759139 1019.59725,31.4687581 C1018.59708,32.4270158 1018,33.8644024 1018,35.3189007 L1018,40.1444128 C1018,40.6121338 1018.39087,41 1018.87377,41 L1037.12623,41 C1037.60855,41 1038,40.6121338 1038,40.1444128 L1038,35.0108893 C1038,32.6950998 1036.37129,30.2310086 1033.35271,30.2310086 L1033.35271,30.2310086 Z"></path>
            </g>
        </g>
    </g>
</svg>