<?xml version="1.0" encoding="UTF-8"?>
<svg width="18px" height="14px" viewBox="0 0 18 14" version="1.1" xmlns="http://www.w3.org/2000/svg" xmlns:xlink="http://www.w3.org/1999/xlink">
    <!-- Generator: Sketch 47.1 (45422) - http://www.bohemiancoding.com/sketch -->
    <title>All</title>
    <desc>Created with Sketch.</desc>
    <defs></defs>
    <g id="Page-1" stroke="none" stroke-width="1" fill="none" fill-rule="evenodd">
        <g id="Dashboard" transform="translate(-46.000000, -238.000000)" fill="#FFFFFF">
            <g id="Side-nav">
                <g id="Items" transform="translate(0.000000, 160.000000)">
                    <path d="M51.1428571,89.1363636 L51.1428571,91.0454545 C51.1428571,91.3106074 51.0491081,91.5359839 50.8616071,91.7215909 C50.6741062,91.9071979 50.4464299,92 50.1785714,92 L46.9642857,92 C46.6964272,92 46.4687509,91.9071979 46.28125,91.7215909 C46.0937491,91.5359839 46,91.3106074 46,91.0454545 L46,89.1363636 C46,88.8712108 46.0937491,88.6458343 46.28125,88.4602273 C46.4687509,88.2746203 46.6964272,88.1818182 46.9642857,88.1818182 L50.1785714,88.1818182 C50.4464299,88.1818182 50.6741062,88.2746203 50.8616071,88.4602273 C51.0491081,88.6458343 51.1428571,88.8712108 51.1428571,89.1363636 Z M51.1428571,84.0454545 L51.1428571,85.9545455 C51.1428571,86.2196983 51.0491081,86.4450748 50.8616071,86.6306818 C50.6741062,86.8162888 50.4464299,86.9090909 50.1785714,86.9090909 L46.9642857,86.9090909 C46.6964272,86.9090909 46.4687509,86.8162888 46.28125,86.6306818 C46.0937491,86.4450748 46,86.2196983 46,85.9545455 L46,84.0454545 C46,83.7803017 46.0937491,83.5549252 46.28125,83.3693182 C46.4687509,83.1837112 46.6964272,83.0909091 46.9642857,83.0909091 L50.1785714,83.0909091 C50.4464299,83.0909091 50.6741062,83.1837112 50.8616071,83.3693182 C51.0491081,83.5549252 51.1428571,83.7803017 51.1428571,84.0454545 Z M57.5714286,89.1363636 L57.5714286,91.0454545 C57.5714286,91.3106074 57.4776795,91.5359839 57.2901786,91.7215909 C57.1026776,91.9071979 56.8750013,92 56.6071429,92 L53.3928571,92 C53.1249987,92 52.8973224,91.9071979 52.7098214,91.7215909 C52.5223205,91.5359839 52.4285714,91.3106074 52.4285714,91.0454545 L52.4285714,89.1363636 C52.4285714,88.8712108 52.5223205,88.6458343 52.7098214,88.4602273 C52.8973224,88.2746203 53.1249987,88.1818182 53.3928571,88.1818182 L56.6071429,88.1818182 C56.8750013,88.1818182 57.1026776,88.2746203 57.2901786,88.4602273 C57.4776795,88.6458343 57.5714286,88.8712108 57.5714286,89.1363636 Z M51.1428571,78.9545455 L51.1428571,80.8636364 C51.1428571,81.1287892 51.0491081,81.3541657 50.8616071,81.5397727 C50.6741062,81.7253797 50.4464299,81.8181818 50.1785714,81.8181818 L46.9642857,81.8181818 C46.6964272,81.8181818 46.4687509,81.7253797 46.28125,81.5397727 C46.0937491,81.3541657 46,81.1287892 46,80.8636364 L46,78.9545455 C46,78.6893926 46.0937491,78.4640161 46.28125,78.2784091 C46.4687509,78.0928021 46.6964272,78 46.9642857,78 L50.1785714,78 C50.4464299,78 50.6741062,78.0928021 50.8616071,78.2784091 C51.0491081,78.4640161 51.1428571,78.6893926 51.1428571,78.9545455 Z M57.5714286,84.0454545 L57.5714286,85.9545455 C57.5714286,86.2196983 57.4776795,86.4450748 57.2901786,86.6306818 C57.1026776,86.8162888 56.8750013,86.9090909 56.6071429,86.9090909 L53.3928571,86.9090909 C53.1249987,86.9090909 52.8973224,86.8162888 52.7098214,86.6306818 C52.5223205,86.4450748 52.4285714,86.2196983 52.4285714,85.9545455 L52.4285714,84.0454545 C52.4285714,83.7803017 52.5223205,83.5549252 52.7098214,83.3693182 C52.8973224,83.1837112 53.1249987,83.0909091 53.3928571,83.0909091 L56.6071429,83.0909091 C56.8750013,83.0909091 57.1026776,83.1837112 57.2901786,83.3693182 C57.4776795,83.5549252 57.5714286,83.7803017 57.5714286,84.0454545 Z M64,89.1363636 L64,91.0454545 C64,91.3106074 63.9062509,91.5359839 63.71875,91.7215909 C63.5312491,91.9071979 63.3035728,92 63.0357143,92 L59.8214286,92 C59.5535701,92 59.3258938,91.9071979 59.1383929,91.7215909 C58.9508919,91.5359839 58.8571429,91.3106074 58.8571429,91.0454545 L58.8571429,89.1363636 C58.8571429,88.8712108 58.9508919,88.6458343 59.1383929,88.4602273 C59.3258938,88.2746203 59.5535701,88.1818182 59.8214286,88.1818182 L63.0357143,88.1818182 C63.3035728,88.1818182 63.5312491,88.2746203 63.71875,88.4602273 C63.9062509,88.6458343 64,88.8712108 64,89.1363636 Z M57.5714286,78.9545455 L57.5714286,80.8636364 C57.5714286,81.1287892 57.4776795,81.3541657 57.2901786,81.5397727 C57.1026776,81.7253797 56.8750013,81.8181818 56.6071429,81.8181818 L53.3928571,81.8181818 C53.1249987,81.8181818 52.8973224,81.7253797 52.7098214,81.5397727 C52.5223205,81.3541657 52.4285714,81.1287892 52.4285714,80.8636364 L52.4285714,78.9545455 C52.4285714,78.6893926 52.5223205,78.4640161 52.7098214,78.2784091 C52.8973224,78.0928021 53.1249987,78 53.3928571,78 L56.6071429,78 C56.8750013,78 57.1026776,78.0928021 57.2901786,78.2784091 C57.4776795,78.4640161 57.5714286,78.6893926 57.5714286,78.9545455 Z M64,84.0454545 L64,85.9545455 C64,86.2196983 63.9062509,86.4450748 63.71875,86.6306818 C63.5312491,86.8162888 63.3035728,86.9090909 63.0357143,86.9090909 L59.8214286,86.9090909 C59.5535701,86.9090909 59.3258938,86.8162888 59.1383929,86.6306818 C58.9508919,86.4450748 58.8571429,86.2196983 58.8571429,85.9545455 L58.8571429,84.0454545 C58.8571429,83.7803017 58.9508919,83.5549252 59.1383929,83.3693182 C59.3258938,83.1837112 59.5535701,83.0909091 59.8214286,83.0909091 L63.0357143,83.0909091 C63.3035728,83.0909091 63.5312491,83.1837112 63.71875,83.3693182 C63.9062509,83.5549252 64,83.7803017 64,84.0454545 Z M64,78.9545455 L64,80.8636364 C64,81.1287892 63.9062509,81.3541657 63.71875,81.5397727 C63.5312491,81.7253797 63.3035728,81.8181818 63.0357143,81.8181818 L59.8214286,81.8181818 C59.5535701,81.8181818 59.3258938,81.7253797 59.1383929,81.5397727 C58.9508919,81.3541657 58.8571429,81.1287892 58.8571429,80.8636364 L58.8571429,78.9545455 C58.8571429,78.6893926 58.9508919,78.4640161 59.1383929,78.2784091 C59.3258938,78.0928021 59.5535701,78 59.8214286,78 L63.0357143,78 C63.3035728,78 63.5312491,78.0928021 63.71875,78.2784091 C63.9062509,78.4640161 64,78.6893926 64,78.9545455 Z" id="All"></path>
                </g>
            </g>
        </g>
    </g>
</svg>