<?xml version="1.0" encoding="UTF-8"?>
<svg width="18px" height="14px" viewBox="0 0 18 14" version="1.1" xmlns="http://www.w3.org/2000/svg" xmlns:xlink="http://www.w3.org/1999/xlink">
    <!-- Generator: Sketch 47.1 (45422) - http://www.bohemiancoding.com/sketch -->
    <title>Images</title>
    <desc>Created with Sketch.</desc>
    <defs></defs>
    <g id="Page-1" stroke="none" stroke-width="1" fill="none" fill-rule="evenodd">
        <g id="Dashboard" transform="translate(-46.000000, -337.000000)" fill="#FFFFFF">
            <g id="Side-nav">
                <g id="Items" transform="translate(0.000000, 160.000000)">
                    <path d="M52,181.083333 C52,181.569447 51.8250017,181.982637 51.475,182.322917 C51.1249982,182.663196 50.7000025,182.833333 50.2,182.833333 C49.6999975,182.833333 49.2750017,182.663196 48.925,182.322917 C48.5749982,181.982637 48.4,181.569447 48.4,181.083333 C48.4,180.59722 48.5749982,180.184029 48.925,179.84375 C49.2750017,179.503471 49.6999975,179.333333 50.2,179.333333 C50.7000025,179.333333 51.1249982,179.503471 51.475,179.84375 C51.8250017,180.184029 52,180.59722 52,181.083333 Z M61.6,184.583333 L61.6,188.666667 L48.4,188.666667 L48.4,186.916667 L51.4,184 L52.9,185.458333 L57.7,180.791667 L61.6,184.583333 Z M62.5,178.166667 L47.5,178.166667 C47.4187496,178.166667 47.3484378,178.195529 47.2890625,178.253255 C47.2296872,178.310981 47.2,178.37934 47.2,178.458333 L47.2,189.541667 C47.2,189.62066 47.2296872,189.689019 47.2890625,189.746745 C47.3484378,189.804471 47.4187496,189.833333 47.5,189.833333 L62.5,189.833333 C62.5812504,189.833333 62.6515622,189.804471 62.7109375,189.746745 C62.7703128,189.689019 62.8,189.62066 62.8,189.541667 L62.8,178.458333 C62.8,178.37934 62.7703128,178.310981 62.7109375,178.253255 C62.6515622,178.195529 62.5812504,178.166667 62.5,178.166667 Z M64,178.458333 L64,189.541667 C64,189.94271 63.8531265,190.286023 63.559375,190.571615 C63.2656235,190.857206 62.9125021,191 62.5,191 L47.5,191 C47.0874979,191 46.7343765,190.857206 46.440625,190.571615 C46.1468735,190.286023 46,189.94271 46,189.541667 L46,178.458333 C46,178.05729 46.1468735,177.713977 46.440625,177.428385 C46.7343765,177.142794 47.0874979,177 47.5,177 L62.5,177 C62.9125021,177 63.2656235,177.142794 63.559375,177.428385 C63.8531265,177.713977 64,178.05729 64,178.458333 Z" id="Images"></path>
                </g>
            </g>
        </g>
    </g>
</svg>