<?xml version="1.0" encoding="UTF-8"?>
<svg width="16px" height="16px" viewBox="0 0 16 16" version="1.1" xmlns="http://www.w3.org/2000/svg" xmlns:xlink="http://www.w3.org/1999/xlink">
    <!-- Generator: Sketch 47.1 (45422) - http://www.bohemiancoding.com/sketch -->
    <title>Link</title>
    <desc>Created with Sketch.</desc>
    <defs></defs>
    <g id="Page-1" stroke="none" stroke-width="1" fill="none" fill-rule="evenodd">
        <g id="Dashboard" transform="translate(-47.000000, -387.000000)" fill="#FFFFFF">
            <g id="Side-nav">
                <g id="Items" transform="translate(0.000000, 160.000000)">
                    <path d="M61.1176471,238.764706 C61.1176471,238.503267 61.0261447,238.281047 60.8431373,238.098039 L58.8039216,236.058824 C58.6209141,235.875816 58.3986941,235.784314 58.1372549,235.784314 C57.8627437,235.784314 57.627452,235.888888 57.4313725,236.098039 C57.4509805,236.117647 57.5130714,236.178104 57.6176471,236.279412 C57.7222227,236.380719 57.7924835,236.45098 57.8284314,236.490196 C57.8643793,236.529412 57.9133984,236.591503 57.9754902,236.676471 C58.037582,236.761438 58.0800652,236.844771 58.1029412,236.926471 C58.1258171,237.00817 58.1372549,237.098039 58.1372549,237.196078 C58.1372549,237.457518 58.0457525,237.679738 57.8627451,237.862745 C57.6797376,238.045753 57.4575176,238.137255 57.1960784,238.137255 C57.0980387,238.137255 57.0081703,238.125817 56.9264706,238.102941 C56.8447708,238.080065 56.7614383,238.037582 56.6764706,237.97549 C56.5915028,237.913398 56.529412,237.864379 56.4901961,237.828431 C56.4509802,237.792483 56.3807195,237.722223 56.2794118,237.617647 C56.1781041,237.513071 56.1176472,237.45098 56.0980392,237.431373 C55.8823519,237.633988 55.7745098,237.872548 55.7745098,238.147059 C55.7745098,238.408498 55.8660122,238.630718 56.0490196,238.813725 L58.0686275,240.843137 C58.2450989,241.019609 58.4673189,241.107843 58.7352941,241.107843 C58.9967333,241.107843 59.2189533,241.022877 59.4019608,240.852941 L60.8431373,239.421569 C61.0261447,239.238561 61.1176471,239.019609 61.1176471,238.764706 Z M54.2254902,231.852941 C54.2254902,231.591502 54.1339878,231.369282 53.9509804,231.186275 L51.9313725,229.156863 C51.7483651,228.973855 51.5261451,228.882353 51.2647059,228.882353 C51.0098026,228.882353 50.7875826,228.970587 50.5980392,229.147059 L49.1568627,230.578431 C48.9738553,230.761439 48.8823529,230.980391 48.8823529,231.235294 C48.8823529,231.496733 48.9738553,231.718953 49.1568627,231.901961 L51.1960784,233.941176 C51.3725499,234.117648 51.5947699,234.205882 51.8627451,234.205882 C52.1372563,234.205882 52.372548,234.104576 52.5686275,233.901961 C52.5490195,233.882353 52.4869286,233.821896 52.3823529,233.720588 C52.2777773,233.619281 52.2075165,233.54902 52.1715686,233.509804 C52.1356207,233.470588 52.0866016,233.408497 52.0245098,233.323529 C51.962418,233.238562 51.9199348,233.155229 51.8970588,233.073529 C51.8741829,232.99183 51.8627451,232.901961 51.8627451,232.803922 C51.8627451,232.542482 51.9542475,232.320262 52.1372549,232.137255 C52.3202624,231.954247 52.5424824,231.862745 52.8039216,231.862745 C52.9019613,231.862745 52.9918297,231.874183 53.0735294,231.897059 C53.1552292,231.919935 53.2385617,231.962418 53.3235294,232.02451 C53.4084972,232.086602 53.470588,232.135621 53.5098039,232.171569 C53.5490198,232.207517 53.6192805,232.277777 53.7205882,232.382353 C53.8218959,232.486929 53.8823528,232.54902 53.9019608,232.568627 C54.1176481,232.366012 54.2254902,232.127452 54.2254902,231.852941 Z M63,238.764706 C63,239.549024 62.722225,240.212416 62.1666667,240.754902 L60.7254902,242.186275 C60.1830038,242.728761 59.5196118,243 58.7352941,243 C57.9444405,243 57.2777805,242.722225 56.7352941,242.166667 L54.7156863,240.137255 C54.1731999,239.594769 53.9019608,238.931376 53.9019608,238.147059 C53.9019608,237.343133 54.1895396,236.660134 54.7647059,236.098039 L53.9019608,235.235294 C53.3398665,235.81046 52.6601347,236.098039 51.8627451,236.098039 C51.0784275,236.098039 50.4117675,235.823532 49.8627451,235.27451 L47.8235294,233.235294 C47.2745071,232.686272 47,232.019612 47,231.235294 C47,230.450976 47.277775,229.787584 47.8333333,229.245098 L49.2745098,227.813725 C49.8169962,227.271239 50.4803882,227 51.2647059,227 C52.0555595,227 52.7222195,227.277775 53.2647059,227.833333 L55.2843137,229.862745 C55.8268001,230.405231 56.0980392,231.068624 56.0980392,231.852941 C56.0980392,232.656867 55.8104604,233.339866 55.2352941,233.901961 L56.0980392,234.764706 C56.6601335,234.18954 57.3398653,233.901961 58.1372549,233.901961 C58.9215725,233.901961 59.5882325,234.176468 60.1372549,234.72549 L62.1764706,236.764706 C62.7254929,237.313728 63,237.980388 63,238.764706 Z" id="Link"></path>
                </g>
            </g>
        </g>
    </g>
</svg>