<?xml version="1.0" encoding="UTF-8"?>
<svg width="16px" height="18px" viewBox="0 0 16 18" version="1.1" xmlns="http://www.w3.org/2000/svg" xmlns:xlink="http://www.w3.org/1999/xlink">
    <!-- Generator: Sketch 47.1 (45422) - http://www.bohemiancoding.com/sketch -->
    <title>Notes</title>
    <desc>Created with Sketch.</desc>
    <defs></defs>
    <g id="Page-1" stroke="none" stroke-width="1" fill="none" fill-rule="evenodd">
        <g id="Dashboard" transform="translate(-47.000000, -286.000000)" fill="#FFFFFF">
            <g id="Side-nav">
                <g id="Items" transform="translate(0.000000, 160.000000)">
                    <path d="M62.2916667,129.816964 C62.4861121,130.004465 62.6527771,130.258927 62.7916667,130.580357 C62.9305563,130.901787 63,131.196427 63,131.464286 L63,143.035714 C63,143.303573 62.9027787,143.531249 62.7083333,143.71875 C62.5138879,143.906251 62.2777792,144 62,144 L48,144 C47.7222208,144 47.4861121,143.906251 47.2916667,143.71875 C47.0972213,143.531249 47,143.303573 47,143.035714 L47,126.964286 C47,126.696427 47.0972213,126.468751 47.2916667,126.28125 C47.4861121,126.093749 47.7222208,126 48,126 L57.3333333,126 C57.6111125,126 57.916665,126.066964 58.25,126.200893 C58.583335,126.334822 58.8472212,126.495535 59.0416667,126.683036 L62.2916667,129.816964 Z M57.6666667,127.366071 L57.6666667,131.142857 L61.5833333,131.142857 C61.5138885,130.94866 61.4375004,130.811384 61.3541667,130.731027 L58.09375,127.587054 C58.0104162,127.506696 57.8680566,127.433036 57.6666667,127.366071 Z M61.6666667,142.714286 L61.6666667,132.428571 L57.3333333,132.428571 C57.0555542,132.428571 56.8194454,132.334822 56.625,132.147321 C56.4305546,131.95982 56.3333333,131.732144 56.3333333,131.464286 L56.3333333,127.285714 L48.3333333,127.285714 L48.3333333,142.714286 L61.6666667,142.714286 Z" id="Notes"></path>
                </g>
            </g>
        </g>
    </g>
</svg>