<?xml version="1.0" encoding="UTF-8"?>
<svg width="68px" height="68px" viewBox="0 0 68 68" version="1.1" xmlns="http://www.w3.org/2000/svg" xmlns:xlink="http://www.w3.org/1999/xlink">
    <!-- Generator: Sketch 47 (45396) - http://www.bohemiancoding.com/sketch -->
    <title>Logo/Dark Grey</title>
    <desc>Created with Sketch.</desc>
    <defs></defs>
    <g id="Landing-Page" stroke="none" stroke-width="1" fill="none" fill-rule="evenodd">
        <g id="Homepage" transform="translate(-416.000000, -4488.000000)" fill="#50596B">
            <g id="Footer" transform="translate(0.000000, 4388.000000)">
                <g id="Content" transform="translate(317.000000, 100.000000)">
                    <g id="Logo/Dark-Grey" transform="translate(99.000000, 0.000000)">
                        <g id="Logo/White">
                            <path d="M63.92,68 L4.08,68 C1.826616,68 0,66.173384 0,63.92 L0,4.08 C0,1.826752 1.826616,0 4.08,0 L63.92,0 C66.173248,0 68,1.826752 68,4.08 L68,63.92 C68,66.173384 66.173248,68 63.92,68 Z M25.4253632,33.422 L26.3247312,31.111904 C25.2631152,30.600272 24.1436992,30.344592 22.9666192,30.344592 C21.9050032,30.333576 20.9727232,30.560424 20.1696432,31.025272 C19.3664272,31.49012 18.7518432,32.150128 18.3256192,33.005432 C17.8992592,33.860736 17.6915872,34.846736 17.7026032,35.963296 C17.7026032,37.756592 18.1371232,39.128832 19.0062992,40.080424 C19.8807792,41.032016 21.1378272,41.507744 22.7767632,41.507744 C23.9265072,41.507744 24.9522192,41.307144 25.8544432,40.9054 L25.8544432,38.4302 C24.7433232,38.881448 23.8246432,39.1068 23.0986752,39.1068 C21.5089712,39.1068 20.7141872,38.064496 20.7141872,35.979888 C20.7141872,34.973216 20.9093472,34.184008 21.2999392,33.611856 C21.6905312,33.039704 22.2377952,32.753832 22.9418672,32.753832 C23.6459392,32.753832 24.4736352,32.9766 25.4253632,33.422 Z M27.793232,41.3592728 L30.697512,41.3592728 L30.697512,29.8081128 L27.793232,29.8081128 L27.793232,41.3592728 Z M37.7929856,37.1390296 C37.7929856,37.8844456 37.6981936,38.4398696 37.5082016,38.8057096 C37.3186176,39.1715496 37.0022816,39.3543336 36.5594656,39.3543336 C36.1166496,39.3543336 35.7962336,39.1701896 35.5982176,38.8016296 C35.4000656,38.4330696 35.3011936,37.8788696 35.3011936,37.1390296 C35.3011936,36.3993256 35.3988416,35.8505656 35.5940016,35.4928856 C35.7892976,35.1356136 36.1083536,34.9566376 36.5511696,34.9566376 C36.9939856,34.9566376 37.3115456,35.1341176 37.5042576,35.4888056 C37.6965616,35.8436296 37.7929856,36.3937496 37.7929856,37.1390296 Z M40.7467696,37.1349496 C40.7632256,35.8258136 40.3836496,34.7709976 39.6081776,33.9707736 C38.8325696,33.1702776 37.8203216,32.7784616 36.5718416,32.7950536 C35.2352336,32.7950536 34.1956496,33.1773496 33.4530896,33.9418056 C32.7159696,34.7063976 32.3474096,35.7651576 32.3474096,37.1183576 C32.3474096,38.4715576 32.7241296,39.5414696 33.4778416,40.3279576 C34.2368576,41.1144456 35.2681456,41.5077576 36.5718416,41.5077576 C37.8752656,41.5077576 38.8971696,41.1227416 39.6370096,40.3527096 C40.3767136,39.5826776 40.7467696,38.5100456 40.7467696,37.1349496 Z M50.5813784,41.3592728 L50.5813784,32.9434568 L47.6772344,32.9434568 L47.6772344,36.6315048 C47.6772344,37.5667768 47.5711544,38.2310008 47.3595384,38.6241768 C47.1476504,39.0174888 46.7916024,39.2141448 46.2911224,39.2141448 C45.9390184,39.2141448 45.6845624,39.0752888 45.5277544,38.7974408 C45.3710824,38.5195928 45.2926104,38.1001688 45.2926104,37.5391688 L45.2926104,32.9434568 L42.3884664,32.9434568 L42.3884664,38.4302408 C42.3884664,39.4037288 42.6455064,40.1602968 43.1599944,40.6991288 C43.6742104,41.2382328 44.3933784,41.5077848 45.3174984,41.5077848 C45.8949544,41.5077848 46.4023704,41.4045608 46.8396104,41.1982488 C47.2769864,40.9922088 47.6165784,40.6965448 47.8585224,40.3113928 L48.0320584,40.3113928 L48.3950424,41.3592728 L50.5813784,41.3592728 Z M55.473924,35.6745 C55.682956,35.317092 55.97998,35.138252 56.365132,35.138252 C56.821548,35.138252 57.1557,35.297644 57.367588,35.6167 C57.579068,35.935892 57.685148,36.461124 57.685148,37.192668 L57.685148,37.423596 C57.668828,38.050828 57.562748,38.505884 57.367588,38.789172 C57.172292,39.07246 56.86126,39.214036 56.435172,39.214036 C56.008812,39.214036 55.689756,39.043628 55.47814,38.70254 C55.266388,38.361588 55.160444,37.860972 55.160444,37.200964 C55.160444,36.54082 55.264756,36.03218 55.473924,35.6745 Z M55.317116,32.794972 C54.36022,32.794972 53.605284,33.179988 53.052308,33.95002 C52.499604,34.720188 52.22162,35.781804 52.2189,37.134868 C52.21618,38.487932 52.488588,39.560564 53.035716,40.352628 C53.583116,41.144828 54.305004,41.529708 55.201788,41.507812 C56.191732,41.507812 56.937148,41.103484 57.437628,40.294964 L57.553228,40.294964 L58.171892,41.3593 L60.366796,41.3593 L60.366796,29.80814 L57.437628,29.80814 L57.437628,32.052412 C57.437628,32.69066 57.48414,33.350532 57.577844,34.032708 L57.52018,34.032708 C57.2339,33.592612 56.91362,33.276412 56.559068,33.0837 C56.204244,32.89126 55.79026,32.794972 55.317116,32.794972 Z M17.5953944,57.7915 L17.5953944,60.406916 C18.1014504,60.649132 18.6032904,60.82362 19.1011864,60.930924 C19.5988104,61.038092 20.2135304,61.091812 20.9452104,61.091812 C22.2268744,61.102828 23.2595224,60.786492 24.0434264,60.14294 C24.8271944,59.499388 25.2137064,58.666116 25.2026904,57.642988 C25.2026904,56.905868 25.0182744,56.30094 24.6497144,55.827796 C24.2867304,55.343908 23.6293064,54.885996 22.6778504,54.45406 C21.7261224,54.02226 21.1391464,53.721156 20.9163784,53.550476 C20.6936104,53.380068 20.5820904,53.188988 20.5820904,52.977236 C20.5820904,52.765484 20.6729384,52.5963 20.8544984,52.46982 C21.0360584,52.343204 21.3081944,52.2801 21.6713144,52.2801 C22.4138744,52.2801 23.2912104,52.511028 24.3031864,52.97302 L25.2026904,50.712292 C24.0254744,50.18978 22.8785864,49.92866 21.7621624,49.92866 C20.4913784,49.92866 19.4902824,50.209092 18.7588744,50.770092 C18.0327704,51.331092 17.6696504,52.117852 17.6696504,53.129828 C17.6696504,54.14194 18.0161784,54.94502 18.7092344,55.539068 C19.0447464,55.825076 19.5975864,56.144268 20.3676184,56.496236 C21.1377864,56.848204 21.6038584,57.077772 21.7662424,57.185076 C21.9283544,57.29238 22.0534744,57.401044 22.1416024,57.510932 C22.2240184,57.621092 22.2653624,57.750156 22.2653624,57.898668 C22.2653624,58.146188 22.1594184,58.343116 21.9476664,58.488636 C21.7359144,58.634564 21.4004024,58.707324 20.9411304,58.707324 C20.4818584,58.707324 19.9551304,58.630348 19.3609464,58.47626 C18.7668984,58.322308 18.1782904,58.0941 17.5953944,57.7915 Z M30.7799552,58.7567872 C30.3837872,58.7567872 30.0896192,58.5946752 29.8970432,58.2700432 C29.7046032,57.9455472 29.6083152,57.4230352 29.6083152,56.7025072 L29.6083152,56.4713072 C29.6247712,55.8499232 29.7209232,55.3933712 29.8970432,55.1017872 C30.0728912,54.8102032 30.3632512,54.6644112 30.7673072,54.6644112 C31.1719072,54.6644112 31.4576432,54.8198592 31.6254672,55.1306192 C31.7931552,55.4415152 31.8770672,55.9626672 31.8770672,56.6942112 C31.8770672,57.4257552 31.7931552,57.9524832 31.6254672,58.2741232 C31.4576432,58.5958992 31.1757152,58.7567872 30.7799552,58.7567872 Z M31.7534432,61.0917712 C32.6938832,61.0917712 33.4420192,60.7040352 33.9974432,59.9284272 C34.5534112,59.1419392 34.8311232,58.0720272 34.8311232,56.7189632 C34.8311232,55.3657632 34.5640192,54.3070032 34.0306272,53.5422752 C33.5028112,52.7668032 32.7669152,52.3789312 31.8237552,52.3789312 C30.8800512,52.3789312 30.1415712,52.7861152 29.6083152,53.6000752 L29.4761232,53.6000752 L29.0717952,52.5274432 L26.7040352,52.5274432 L26.7040352,64.5982592 L29.6083152,64.5982592 L29.6083152,61.2155312 C29.6083152,61.0505632 29.5643872,60.6848592 29.4761232,60.1182832 L29.6083152,60.1182832 C29.9326752,60.4759632 30.2615232,60.7274272 30.5943152,60.8732192 C30.9271072,61.0188752 31.3133472,61.0917712 31.7534432,61.0917712 Z M38.9971976,58.2700296 C38.9971976,57.6098856 39.4730616,57.2580536 40.4246536,57.2138536 L41.0930936,57.1892376 L41.0930936,57.8410856 C41.0930936,58.2040696 40.9693336,58.4956536 40.7218136,58.7155656 C40.4741576,58.9357496 40.1742776,59.0456376 39.8223096,59.0456376 C39.2721896,59.0456376 38.9971976,58.7872376 38.9971976,58.2700296 Z M43.9807816,60.9432456 L43.9807816,55.4234136 C43.9807816,54.4719576 43.6851176,53.7266776 43.0937896,53.1875736 C42.5023256,52.6486056 41.6676936,52.3790536 40.5897576,52.3790536 C39.0990616,52.3790536 37.8613256,52.6320136 36.8769576,53.1380696 L37.7183896,55.0522696 C38.6699816,54.6397816 39.4481736,54.4334696 40.0533736,54.4334696 C40.7408536,54.4334696 41.0847976,54.7799976 41.0847976,55.4731896 L41.0847976,55.5885176 L39.6739336,55.6380216 C37.2481016,55.7370296 36.0353896,56.6502696 36.0353896,58.3773336 C36.0353896,59.2300536 36.2607416,59.8955016 36.7118536,60.3739496 C37.1629656,60.8525336 37.7872056,61.0917576 38.5848456,61.0917576 C39.2228216,61.0917576 39.7494136,61.0010456 40.1647576,60.8194856 C40.5801016,60.6380616 40.9776296,60.3078536 41.3570696,59.8295416 L41.4147336,59.8295416 L41.9757336,60.9432456 L43.9807816,60.9432456 Z M49.7892872,61.0917576 C50.8343112,61.0917576 51.7336792,60.8442376 52.4873912,60.3491976 L52.4873912,58.0391016 C51.7006312,58.5340056 50.8838152,58.7816616 50.0368072,58.7816616 C49.0411512,58.7816616 48.5433912,58.1079176 48.5433912,56.7601576 C48.5433912,56.0947096 48.6713672,55.5789976 48.9271832,55.2130216 C49.1829992,54.8474536 49.5527832,54.6643976 50.0368072,54.6643976 C50.5208312,54.6643976 51.1476552,54.8323576 51.9179592,55.1677336 L52.7759832,53.0226056 C51.9068072,52.5936616 50.9883992,52.3790536 50.0203512,52.3790536 C48.6011912,52.3790536 47.5078872,52.7625736 46.7405752,53.5298856 C45.9731272,54.2971976 45.5896072,55.3796216 45.5896072,56.7766136 C45.5896072,58.1738776 45.9470152,59.2422936 46.6622392,59.9821336 C47.3773272,60.7218376 48.4196312,61.0917576 49.7892872,61.0917576 Z M58.9393944,54.7222112 C59.1593064,54.9642912 59.2719144,55.2887872 59.2776264,55.6958352 L56.7858344,55.6958352 C56.8241864,55.2502992 56.9550184,54.9161472 57.1777864,54.6933792 C57.4005544,54.4706112 57.6947224,54.3590912 58.0605624,54.3590912 C58.4264024,54.3590912 58.7193464,54.4802672 58.9393944,54.7222112 Z M58.2215864,61.0917712 C58.9034904,61.0917712 59.4880184,61.0464832 59.9746264,60.9557712 C60.4616424,60.8649232 60.9248584,60.7040352 61.3649544,60.4729712 L61.3649544,58.3856432 C60.8700504,58.6221472 60.4050664,58.7886112 59.9706824,58.8846272 C59.5361624,58.9810512 59.0534984,59.0290592 58.5226904,59.0290592 C57.9917464,59.0290592 57.5641624,58.8957792 57.2396664,58.6289472 C56.9148984,58.3622512 56.7446264,57.9923312 56.7281704,57.5191872 L61.9176584,57.5191872 L61.9176584,56.2322192 C61.9176584,54.9944832 61.5726264,54.0428912 60.8824264,53.3773072 C60.1920904,52.7119952 59.1952104,52.3790672 57.8915144,52.3790672 C56.5878184,52.3790672 55.5784264,52.7586432 54.8634744,53.5176592 C54.1482504,54.2766752 53.7909784,55.3547472 53.7909784,56.7518752 C53.7909784,58.1491392 54.1785784,59.2243552 54.9541864,59.9780672 C55.7296584,60.7204912 56.8188824,61.0917712 58.2215864,61.0917712 Z M66.2988032,59.7057272 C66.2988032,59.2547512 66.1667472,58.9052312 65.9027712,58.6578472 C65.6386592,58.4103272 65.2563632,58.2864312 64.7558832,58.2864312 C64.2552672,58.2864312 63.8688912,58.4091032 63.5966192,58.6537672 C63.3244832,58.8984312 63.1882112,59.2478152 63.1882112,59.7016472 C63.1882112,60.1553432 63.3284272,60.5074472 63.6091312,60.7575512 C63.8894272,61.0077912 64.2717232,61.1330472 64.7558832,61.1330472 C65.2397712,61.1330472 65.6179872,61.0077912 65.8903952,60.7575512 C66.1625312,60.5074472 66.2988032,60.1567032 66.2988032,59.7057272 Z" id="Logo"></path>
                        </g>
                    </g>
                </g>
            </g>
        </g>
    </g>
</svg>