<?xml version="1.0" encoding="UTF-8"?>
<svg width="68px" height="68px" viewBox="0 0 68 68" version="1.1" xmlns="http://www.w3.org/2000/svg" xmlns:xlink="http://www.w3.org/1999/xlink">
    <!-- Generator: Sketch 47 (45396) - http://www.bohemiancoding.com/sketch -->
    <title>Logo/White</title>
    <desc>Created with Sketch.</desc>
    <defs></defs>
    <g id="Landing-Page" stroke="none" stroke-width="1" fill="none" fill-rule="evenodd">
        <g id="Homepage" transform="translate(-150.000000, -30.000000)" fill="#FFFFFF">
            <g id="Hero">
                <g id="Header" transform="translate(150.000000, 30.000000)">
                    <g id="Logo/White">
                        <path d="M63.92,67.9999592 L4.08,67.9999592 C1.826616,67.9999592 0,66.1733432 0,63.9199592 L0,4.0799592 C0,1.8267112 1.826616,-4.08e-05 4.08,-4.08e-05 L63.92,-4.08e-05 C66.173248,-4.08e-05 68,1.8267112 68,4.0799592 L68,63.9199592 C68,66.1733432 66.173248,67.9999592 63.92,67.9999592 Z M25.4253632,33.4219592 L26.3247312,31.1118632 C25.2631152,30.6002312 24.1436992,30.3445512 22.9666192,30.3445512 C21.9050032,30.3335352 20.9727232,30.5603832 20.1696432,31.0252312 C19.3664272,31.4900792 18.7518432,32.1500872 18.3256192,33.0053912 C17.8992592,33.8606952 17.6915872,34.8466952 17.7026032,35.9632552 C17.7026032,37.7565512 18.1371232,39.1287912 19.0062992,40.0803832 C19.8807792,41.0319752 21.1378272,41.5077032 22.7767632,41.5077032 C23.9265072,41.5077032 24.9522192,41.3071032 25.8544432,40.9053592 L25.8544432,38.4301592 C24.7433232,38.8814072 23.8246432,39.1067592 23.0986752,39.1067592 C21.5089712,39.1067592 20.7141872,38.0644552 20.7141872,35.9798472 C20.7141872,34.9731752 20.9093472,34.1839672 21.2999392,33.6118152 C21.6905312,33.0396632 22.2377952,32.7537912 22.9418672,32.7537912 C23.6459392,32.7537912 24.4736352,32.9765592 25.4253632,33.4219592 Z M27.793232,41.359232 L30.697512,41.359232 L30.697512,29.808072 L27.793232,29.808072 L27.793232,41.359232 Z M37.7929856,37.1389888 C37.7929856,37.8844048 37.6981936,38.4398288 37.5082016,38.8056688 C37.3186176,39.1715088 37.0022816,39.3542928 36.5594656,39.3542928 C36.1166496,39.3542928 35.7962336,39.1701488 35.5982176,38.8015888 C35.4000656,38.4330288 35.3011936,37.8788288 35.3011936,37.1389888 C35.3011936,36.3992848 35.3988416,35.8505248 35.5940016,35.4928448 C35.7892976,35.1355728 36.1083536,34.9565968 36.5511696,34.9565968 C36.9939856,34.9565968 37.3115456,35.1340768 37.5042576,35.4887648 C37.6965616,35.8435888 37.7929856,36.3937088 37.7929856,37.1389888 Z M40.7467696,37.1349088 C40.7632256,35.8257728 40.3836496,34.7709568 39.6081776,33.9707328 C38.8325696,33.1702368 37.8203216,32.7784208 36.5718416,32.7950128 C35.2352336,32.7950128 34.1956496,33.1773088 33.4530896,33.9417648 C32.7159696,34.7063568 32.3474096,35.7651168 32.3474096,37.1183168 C32.3474096,38.4715168 32.7241296,39.5414288 33.4778416,40.3279168 C34.2368576,41.1144048 35.2681456,41.5077168 36.5718416,41.5077168 C37.8752656,41.5077168 38.8971696,41.1227008 39.6370096,40.3526688 C40.3767136,39.5826368 40.7467696,38.5100048 40.7467696,37.1349088 Z M50.5813784,41.359232 L50.5813784,32.943416 L47.6772344,32.943416 L47.6772344,36.631464 C47.6772344,37.566736 47.5711544,38.23096 47.3595384,38.624136 C47.1476504,39.017448 46.7916024,39.214104 46.2911224,39.214104 C45.9390184,39.214104 45.6845624,39.075248 45.5277544,38.7974 C45.3710824,38.519552 45.2926104,38.100128 45.2926104,37.539128 L45.2926104,32.943416 L42.3884664,32.943416 L42.3884664,38.4302 C42.3884664,39.403688 42.6455064,40.160256 43.1599944,40.699088 C43.6742104,41.238192 44.3933784,41.507744 45.3174984,41.507744 C45.8949544,41.507744 46.4023704,41.40452 46.8396104,41.198208 C47.2769864,40.992168 47.6165784,40.696504 47.8585224,40.311352 L48.0320584,40.311352 L48.3950424,41.359232 L50.5813784,41.359232 Z M55.473924,35.6744592 C55.682956,35.3170512 55.97998,35.1382112 56.365132,35.1382112 C56.821548,35.1382112 57.1557,35.2976032 57.367588,35.6166592 C57.579068,35.9358512 57.685148,36.4610832 57.685148,37.1926272 L57.685148,37.4235552 C57.668828,38.0507872 57.562748,38.5058432 57.367588,38.7891312 C57.172292,39.0724192 56.86126,39.2139952 56.435172,39.2139952 C56.008812,39.2139952 55.689756,39.0435872 55.47814,38.7024992 C55.266388,38.3615472 55.160444,37.8609312 55.160444,37.2009232 C55.160444,36.5407792 55.264756,36.0321392 55.473924,35.6744592 Z M55.317116,32.7949312 C54.36022,32.7949312 53.605284,33.1799472 53.052308,33.9499792 C52.499604,34.7201472 52.22162,35.7817632 52.2189,37.1348272 C52.21618,38.4878912 52.488588,39.5605232 53.035716,40.3525872 C53.583116,41.1447872 54.305004,41.5296672 55.201788,41.5077712 C56.191732,41.5077712 56.937148,41.1034432 57.437628,40.2949232 L57.553228,40.2949232 L58.171892,41.3592592 L60.366796,41.3592592 L60.366796,29.8080992 L57.437628,29.8080992 L57.437628,32.0523712 C57.437628,32.6906192 57.48414,33.3504912 57.577844,34.0326672 L57.52018,34.0326672 C57.2339,33.5925712 56.91362,33.2763712 56.559068,33.0836592 C56.204244,32.8912192 55.79026,32.7949312 55.317116,32.7949312 Z M17.5953944,57.7914592 L17.5953944,60.4068752 C18.1014504,60.6490912 18.6032904,60.8235792 19.1011864,60.9308832 C19.5988104,61.0380512 20.2135304,61.0917712 20.9452104,61.0917712 C22.2268744,61.1027872 23.2595224,60.7864512 24.0434264,60.1428992 C24.8271944,59.4993472 25.2137064,58.6660752 25.2026904,57.6429472 C25.2026904,56.9058272 25.0182744,56.3008992 24.6497144,55.8277552 C24.2867304,55.3438672 23.6293064,54.8859552 22.6778504,54.4540192 C21.7261224,54.0222192 21.1391464,53.7211152 20.9163784,53.5504352 C20.6936104,53.3800272 20.5820904,53.1889472 20.5820904,52.9771952 C20.5820904,52.7654432 20.6729384,52.5962592 20.8544984,52.4697792 C21.0360584,52.3431632 21.3081944,52.2800592 21.6713144,52.2800592 C22.4138744,52.2800592 23.2912104,52.5109872 24.3031864,52.9729792 L25.2026904,50.7122512 C24.0254744,50.1897392 22.8785864,49.9286192 21.7621624,49.9286192 C20.4913784,49.9286192 19.4902824,50.2090512 18.7588744,50.7700512 C18.0327704,51.3310512 17.6696504,52.1178112 17.6696504,53.1297872 C17.6696504,54.1418992 18.0161784,54.9449792 18.7092344,55.5390272 C19.0447464,55.8250352 19.5975864,56.1442272 20.3676184,56.4961952 C21.1377864,56.8481632 21.6038584,57.0777312 21.7662424,57.1850352 C21.9283544,57.2923392 22.0534744,57.4010032 22.1416024,57.5108912 C22.2240184,57.6210512 22.2653624,57.7501152 22.2653624,57.8986272 C22.2653624,58.1461472 22.1594184,58.3430752 21.9476664,58.4885952 C21.7359144,58.6345232 21.4004024,58.7072832 20.9411304,58.7072832 C20.4818584,58.7072832 19.9551304,58.6303072 19.3609464,58.4762192 C18.7668984,58.3222672 18.1782904,58.0940592 17.5953944,57.7914592 Z M30.7799552,58.7567464 C30.3837872,58.7567464 30.0896192,58.5946344 29.8970432,58.2700024 C29.7046032,57.9455064 29.6083152,57.4229944 29.6083152,56.7024664 L29.6083152,56.4712664 C29.6247712,55.8498824 29.7209232,55.3933304 29.8970432,55.1017464 C30.0728912,54.8101624 30.3632512,54.6643704 30.7673072,54.6643704 C31.1719072,54.6643704 31.4576432,54.8198184 31.6254672,55.1305784 C31.7931552,55.4414744 31.8770672,55.9626264 31.8770672,56.6941704 C31.8770672,57.4257144 31.7931552,57.9524424 31.6254672,58.2740824 C31.4576432,58.5958584 31.1757152,58.7567464 30.7799552,58.7567464 Z M31.7534432,61.0917304 C32.6938832,61.0917304 33.4420192,60.7039944 33.9974432,59.9283864 C34.5534112,59.1418984 34.8311232,58.0719864 34.8311232,56.7189224 C34.8311232,55.3657224 34.5640192,54.3069624 34.0306272,53.5422344 C33.5028112,52.7667624 32.7669152,52.3788904 31.8237552,52.3788904 C30.8800512,52.3788904 30.1415712,52.7860744 29.6083152,53.6000344 L29.4761232,53.6000344 L29.0717952,52.5274024 L26.7040352,52.5274024 L26.7040352,64.5982184 L29.6083152,64.5982184 L29.6083152,61.2154904 C29.6083152,61.0505224 29.5643872,60.6848184 29.4761232,60.1182424 L29.6083152,60.1182424 C29.9326752,60.4759224 30.2615232,60.7273864 30.5943152,60.8731784 C30.9271072,61.0188344 31.3133472,61.0917304 31.7534432,61.0917304 Z M38.9971976,58.2699888 C38.9971976,57.6098448 39.4730616,57.2580128 40.4246536,57.2138128 L41.0930936,57.1891968 L41.0930936,57.8410448 C41.0930936,58.2040288 40.9693336,58.4956128 40.7218136,58.7155248 C40.4741576,58.9357088 40.1742776,59.0455968 39.8223096,59.0455968 C39.2721896,59.0455968 38.9971976,58.7871968 38.9971976,58.2699888 Z M43.9807816,60.9432048 L43.9807816,55.4233728 C43.9807816,54.4719168 43.6851176,53.7266368 43.0937896,53.1875328 C42.5023256,52.6485648 41.6676936,52.3790128 40.5897576,52.3790128 C39.0990616,52.3790128 37.8613256,52.6319728 36.8769576,53.1380288 L37.7183896,55.0522288 C38.6699816,54.6397408 39.4481736,54.4334288 40.0533736,54.4334288 C40.7408536,54.4334288 41.0847976,54.7799568 41.0847976,55.4731488 L41.0847976,55.5884768 L39.6739336,55.6379808 C37.2481016,55.7369888 36.0353896,56.6502288 36.0353896,58.3772928 C36.0353896,59.2300128 36.2607416,59.8954608 36.7118536,60.3739088 C37.1629656,60.8524928 37.7872056,61.0917168 38.5848456,61.0917168 C39.2228216,61.0917168 39.7494136,61.0010048 40.1647576,60.8194448 C40.5801016,60.6380208 40.9776296,60.3078128 41.3570696,59.8295008 L41.4147336,59.8295008 L41.9757336,60.9432048 L43.9807816,60.9432048 Z M49.7892872,61.0917168 C50.8343112,61.0917168 51.7336792,60.8441968 52.4873912,60.3491568 L52.4873912,58.0390608 C51.7006312,58.5339648 50.8838152,58.7816208 50.0368072,58.7816208 C49.0411512,58.7816208 48.5433912,58.1078768 48.5433912,56.7601168 C48.5433912,56.0946688 48.6713672,55.5789568 48.9271832,55.2129808 C49.1829992,54.8474128 49.5527832,54.6643568 50.0368072,54.6643568 C50.5208312,54.6643568 51.1476552,54.8323168 51.9179592,55.1676928 L52.7759832,53.0225648 C51.9068072,52.5936208 50.9883992,52.3790128 50.0203512,52.3790128 C48.6011912,52.3790128 47.5078872,52.7625328 46.7405752,53.5298448 C45.9731272,54.2971568 45.5896072,55.3795808 45.5896072,56.7765728 C45.5896072,58.1738368 45.9470152,59.2422528 46.6622392,59.9820928 C47.3773272,60.7217968 48.4196312,61.0917168 49.7892872,61.0917168 Z M58.9393944,54.7221704 C59.1593064,54.9642504 59.2719144,55.2887464 59.2776264,55.6957944 L56.7858344,55.6957944 C56.8241864,55.2502584 56.9550184,54.9161064 57.1777864,54.6933384 C57.4005544,54.4705704 57.6947224,54.3590504 58.0605624,54.3590504 C58.4264024,54.3590504 58.7193464,54.4802264 58.9393944,54.7221704 Z M58.2215864,61.0917304 C58.9034904,61.0917304 59.4880184,61.0464424 59.9746264,60.9557304 C60.4616424,60.8648824 60.9248584,60.7039944 61.3649544,60.4729304 L61.3649544,58.3856024 C60.8700504,58.6221064 60.4050664,58.7885704 59.9706824,58.8845864 C59.5361624,58.9810104 59.0534984,59.0290184 58.5226904,59.0290184 C57.9917464,59.0290184 57.5641624,58.8957384 57.2396664,58.6289064 C56.9148984,58.3622104 56.7446264,57.9922904 56.7281704,57.5191464 L61.9176584,57.5191464 L61.9176584,56.2321784 C61.9176584,54.9944424 61.5726264,54.0428504 60.8824264,53.3772664 C60.1920904,52.7119544 59.1952104,52.3790264 57.8915144,52.3790264 C56.5878184,52.3790264 55.5784264,52.7586024 54.8634744,53.5176184 C54.1482504,54.2766344 53.7909784,55.3547064 53.7909784,56.7518344 C53.7909784,58.1490984 54.1785784,59.2243144 54.9541864,59.9780264 C55.7296584,60.7204504 56.8188824,61.0917304 58.2215864,61.0917304 Z M66.2988032,59.7056864 C66.2988032,59.2547104 66.1667472,58.9051904 65.9027712,58.6578064 C65.6386592,58.4102864 65.2563632,58.2863904 64.7558832,58.2863904 C64.2552672,58.2863904 63.8688912,58.4090624 63.5966192,58.6537264 C63.3244832,58.8983904 63.1882112,59.2477744 63.1882112,59.7016064 C63.1882112,60.1553024 63.3284272,60.5074064 63.6091312,60.7575104 C63.8894272,61.0077504 64.2717232,61.1330064 64.7558832,61.1330064 C65.2397712,61.1330064 65.6179872,61.0077504 65.8903952,60.7575104 C66.1625312,60.5074064 66.2988032,60.1566624 66.2988032,59.7056864 Z" id="Logo"></path>
                    </g>
                </g>
            </g>
        </g>
    </g>
</svg>