<svg width="180" height="180" viewBox="0 0 180 180" fill="none" xmlns="http://www.w3.org/2000/svg">
<path d="M169.2 180H10.8C4.83516 180 0 175.165 0 169.2V10.8C0 4.83552 4.83516 0 10.8 0H169.2C175.164 0 180 4.83552 180 10.8V169.2C180 175.165 175.164 180 169.2 180ZM67.3024 88.47L69.6831 82.355C66.873 81.0007 63.9098 80.3239 60.794 80.3239C57.9838 80.2948 55.516 80.8952 53.3902 82.1257C51.2641 83.3562 49.6372 85.1033 48.509 87.3673C47.3804 89.6314 46.8307 92.2414 46.8598 95.197C46.8598 99.9439 48.01 103.576 50.3108 106.095C52.6256 108.614 55.9531 109.873 60.2914 109.873C63.3349 109.873 66.05 109.342 68.4382 108.279V101.727C65.497 102.921 63.0652 103.518 61.1436 103.518C56.9355 103.518 54.8317 100.759 54.8317 95.2409C54.8317 92.5762 55.3483 90.4871 56.3822 88.9726C57.4161 87.458 58.8648 86.7013 60.7285 86.7013C62.5922 86.7013 64.7831 87.291 67.3024 88.47ZM73.5703 109.48H81.2581V78.9038H73.5703V109.48ZM100.04 98.3092C100.04 100.282 99.7893 101.753 99.2864 102.721C98.7846 103.689 97.9472 104.173 96.7751 104.173C95.6029 104.173 94.7547 103.686 94.2306 102.71C93.7061 101.735 93.4443 100.268 93.4443 98.3092C93.4443 96.3512 93.7028 94.8986 94.2194 93.9518C94.7364 93.006 95.5809 92.5323 96.7531 92.5323C97.9253 92.5323 98.7659 93.0021 99.276 93.941C99.785 94.8802 100.04 96.3364 100.04 98.3092ZM107.859 98.2984C107.903 94.833 106.898 92.0409 104.845 89.9226C102.792 87.8037 100.113 86.7665 96.8078 86.8104C93.2697 86.8104 90.5179 87.8224 88.5523 89.846C86.6011 91.8699 85.6255 94.6725 85.6255 98.2545C85.6255 101.836 86.6227 104.669 88.6178 106.75C90.627 108.832 93.3569 109.873 96.8078 109.873C100.258 109.873 102.963 108.854 104.921 106.816C106.88 104.778 107.859 101.938 107.859 98.2984ZM133.892 109.48V87.2033H126.204V96.9658C126.204 99.4415 125.924 101.2 125.363 102.24C124.803 103.282 123.86 103.802 122.535 103.802C121.603 103.802 120.93 103.435 120.515 102.699C120.1 101.964 119.892 100.853 119.892 99.3684V87.2033H112.205V101.727C112.205 104.304 112.885 106.307 114.247 107.733C115.608 109.16 117.512 109.874 119.958 109.874C121.487 109.874 122.83 109.6 123.987 109.054C125.145 108.509 126.044 107.726 126.684 106.707H127.144L128.105 109.48H133.892ZM146.843 94.4325C147.396 93.4864 148.182 93.013 149.202 93.013C150.41 93.013 151.294 93.4349 151.855 94.2795C152.415 95.1244 152.696 96.5147 152.696 98.4512V99.0625C152.653 100.723 152.372 101.927 151.855 102.677C151.338 103.427 150.515 103.802 149.387 103.802C148.259 103.802 147.414 103.351 146.854 102.448C146.293 101.545 146.013 100.22 146.013 98.4731C146.013 96.7257 146.289 95.3793 146.843 94.4325ZM146.428 86.8102C143.895 86.8102 141.896 87.8294 140.433 89.8677C138.97 91.9064 138.234 94.7165 138.227 98.2982C138.219 101.88 138.94 104.719 140.389 106.816C141.838 108.913 143.749 109.932 146.122 109.874C148.743 109.874 150.716 108.803 152.041 106.663H152.347L153.984 109.48H159.794V78.9039H152.041V84.8446C152.041 86.5341 152.164 88.2808 152.412 90.0866H152.259C151.501 88.9216 150.654 88.0846 149.715 87.5745C148.776 87.0651 147.68 86.8102 146.428 86.8102ZM46.576 152.977V159.901C47.9156 160.542 49.244 161.004 50.562 161.288C51.8792 161.571 53.5064 161.714 55.4432 161.714C58.8358 161.743 61.5693 160.905 63.6444 159.202C65.719 157.498 66.7422 155.293 66.713 152.584C66.713 150.633 66.2248 149.032 65.2492 147.779C64.2884 146.499 62.5482 145.286 60.0296 144.143C57.5103 143 55.9566 142.203 55.3669 141.751C54.7772 141.3 54.482 140.794 54.482 140.234C54.482 139.673 54.7225 139.225 55.2031 138.891C55.6837 138.556 56.404 138.389 57.3652 138.389C59.3308 138.389 61.6532 139 64.332 140.223L66.713 134.238C63.5968 132.855 60.561 132.164 57.6057 132.164C54.2419 132.164 51.5919 132.906 49.6558 134.391C47.7338 135.876 46.7726 137.959 46.7726 140.638C46.7726 143.317 47.6899 145.443 49.5244 147.015C50.4126 147.772 51.876 148.617 53.9143 149.549C55.953 150.481 57.1867 151.088 57.6165 151.372C58.0456 151.656 58.3768 151.944 58.6101 152.235C58.8283 152.526 58.9377 152.868 58.9377 153.261C58.9377 153.916 58.6573 154.438 58.0968 154.823C57.5362 155.209 56.6481 155.402 55.4324 155.402C54.2167 155.402 52.8224 155.198 51.2496 154.79C49.6771 154.383 48.119 153.778 46.576 152.977ZM81.4763 155.533C80.4277 155.533 79.649 155.104 79.1392 154.244C78.6298 153.385 78.375 152.002 78.375 150.095V149.483C78.4185 147.838 78.673 146.63 79.1392 145.858C79.6047 145.086 80.3733 144.7 81.4429 144.7C82.5139 144.7 83.2702 145.111 83.7145 145.934C84.1583 146.757 84.3805 148.136 84.3805 150.073C84.3805 152.009 84.1583 153.404 83.7145 154.255C83.2702 155.107 82.5239 155.533 81.4763 155.533ZM84.0532 161.714C86.5426 161.714 88.523 160.687 89.9932 158.634C91.4649 156.552 92.2 153.72 92.2 150.138C92.2 146.556 91.493 143.754 90.0811 141.73C88.6839 139.677 86.7359 138.65 84.2393 138.65C81.7413 138.65 79.7865 139.728 78.375 141.883H78.025L76.9548 139.043H70.6871V170.995H78.375V162.041C78.375 161.604 78.2587 160.636 78.025 159.137H78.375C79.2336 160.083 80.104 160.749 80.985 161.135C81.8659 161.521 82.8883 161.714 84.0532 161.714ZM103.228 154.244C103.228 152.497 104.488 151.565 107.006 151.448L108.776 151.383V153.109C108.776 154.07 108.448 154.841 107.793 155.424C107.137 156.006 106.344 156.297 105.412 156.297C103.956 156.297 103.228 155.613 103.228 154.244ZM116.42 161.32V146.709C116.42 144.19 115.637 142.218 114.072 140.791C112.506 139.364 110.297 138.65 107.443 138.65C103.498 138.65 100.221 139.32 97.6155 140.66L99.8428 145.727C102.362 144.635 104.422 144.089 106.024 144.089C107.843 144.089 108.754 145.006 108.754 146.841V147.146L105.019 147.277C98.5979 147.539 95.3878 149.957 95.3878 154.528C95.3878 156.785 95.9843 158.547 97.1784 159.813C98.3726 161.08 100.025 161.713 102.136 161.713C103.825 161.713 105.219 161.473 106.318 160.993C107.418 160.513 108.47 159.638 109.475 158.372H109.627L111.112 161.32H116.42ZM131.795 161.713C134.561 161.713 136.942 161.058 138.937 159.748V153.633C136.855 154.943 134.692 155.599 132.45 155.599C129.815 155.599 128.497 153.815 128.497 150.247C128.497 148.486 128.836 147.121 129.513 146.152C130.19 145.184 131.169 144.7 132.45 144.7C133.732 144.7 135.391 145.144 137.43 146.032L139.701 140.354C137.4 139.219 134.969 138.65 132.407 138.65C128.65 138.65 125.756 139.666 123.725 141.697C121.694 143.728 120.678 146.593 120.678 150.291C120.678 153.99 121.624 156.818 123.518 158.776C125.411 160.734 128.17 161.713 131.795 161.713ZM156.016 144.853C156.598 145.494 156.896 146.353 156.911 147.43H150.315C150.417 146.251 150.763 145.366 151.353 144.777C151.943 144.187 152.721 143.892 153.69 143.892C154.658 143.892 155.434 144.212 156.016 144.853ZM154.116 161.714C155.921 161.714 157.468 161.594 158.756 161.354C160.046 161.113 161.272 160.687 162.437 160.076V154.55C161.127 155.176 159.896 155.617 158.746 155.871C157.596 156.126 156.318 156.253 154.913 156.253C153.508 156.253 152.376 155.901 151.517 155.194C150.657 154.488 150.206 153.509 150.163 152.257H163.9V148.85C163.9 145.574 162.986 143.055 161.159 141.293C159.332 139.532 156.693 138.65 153.242 138.65C149.791 138.65 147.119 139.655 145.227 141.664C143.334 143.674 142.388 146.527 142.388 150.226C142.388 153.924 143.414 156.77 145.467 158.765C147.52 160.731 150.403 161.714 154.116 161.714ZM175.497 158.045C175.497 156.851 175.147 155.926 174.449 155.271C173.749 154.616 172.737 154.288 171.413 154.288C170.087 154.288 169.065 154.612 168.344 155.26C167.624 155.908 167.263 156.832 167.263 158.034C167.263 159.235 167.634 160.167 168.377 160.829C169.119 161.491 170.131 161.823 171.413 161.823C172.694 161.823 173.695 161.491 174.416 160.829C175.136 160.167 175.497 159.238 175.497 158.045Z" fill="black"/>
</svg>
